/* XPM */
static char *_519209777376[] = {
/* columns rows colors chars-per-pixel */
"128 128 75 1 ",
"  c #020201",
". c #080602",
"X c #0B0A05",
"o c #0C0C0C",
"O c #110F0A",
"+ c #13120D",
"@ c #131313",
"# c #181712",
"$ c #1C1B16",
"% c #1D1D1A",
"& c #201F1A",
"* c #21201B",
"= c #242424",
"- c #282722",
"; c #2A2925",
": c #2C2C2C",
"> c #32322D",
", c #323232",
"< c #3B3A35",
"1 c #3C3C3C",
"2 c #403F3D",
"3 c #42413D",
"4 c #444443",
"5 c #484743",
"6 c #4A4945",
"7 c #4C4C4C",
"8 c #504F4B",
"9 c #52514E",
"0 c #545454",
"q c #5A5A56",
"w c #5C5C5B",
"e c #61615D",
"r c #646463",
"t c #696965",
"y c #6C6B6B",
"u c #73726F",
"i c #747473",
"p c #797875",
"a c #7B7B7B",
"s c #81817E",
"d c #838383",
"f c #888784",
"g c #8A8986",
"h c #8C8C8C",
"j c #91918E",
"k c #949493",
"l c #9A9A97",
"z c #9B9B9B",
"x c #A09F9D",
"c c #A1A19F",
"v c #A4A4A3",
"b c #A8A7A5",
"n c #A9A9A7",
"m c #ACACAC",
"M c #B1B0AE",
"N c #B5B5B4",
"B c #B7B8B7",
"V c #BDBDBC",
"C c #C1C1BF",
"Z c #C5C5C4",
"A c #C8C7C6",
"S c #C8C8C7",
"D c #CBCBCB",
"F c #D0D0CF",
"G c #D4D3D3",
"H c #D8D8D6",
"J c #DCDCDC",
"K c #E4E4E4",
"L c #ECECEC",
"P c #F0F0EF",
"I c #F4F4F4",
"U c #F7F8F7",
"Y c #F8F8F7",
"T c #FEFEFE",
"R c None",
/* pixels */
"RRRRRRRRRRRRRRRRRRRRRRRRRRRRRRRRRRRRRRRRRRRRRRRRRRRRRRRRRRRRRRRRRRRRRRRRRRRRRRRRRRRRRRRRRRRRRRRRRRRRRRRRRRRRRRRRRRRRRRRRRRRRRRRR",
"RRRRRRRRRRRRRRRRRRRRRRRRRRRRRRRRRRRRRRRRRRRRRRRRRRRRRRRRRRRRRRRRRRRRRRRRRRRRRRRRRRRRRRRRRRRRRRRRRRRRRRRRRRRRRRRRRRRRRRRRRRRRRRRR",
"RRRRRRRRRRRRRRRRRRRRRRRRRRRRRRRRRRRRRRRRRRRRRRRRRRRRRRRRRRRRRRRRRRRRRRRRRRRRRRRRRRRRRRRRRRRRRRRRRRRRRRRRRRRRRRRRRRRRRRRRRRRRRRRR",
"RRRRRRRRRRRRRRRRRRRRRRRRRRRRRRRRRRRRRRRRRRRRRRRRRRRRRRRRTTTTTTTTTTTTTTTRRRRRRRRRRRRRRRRRRRRRRRRRRRRRRRRRRRRRRRRRRRRRRRRRRRRRRRRR",
"RRRRRRRRRRRRRRRRRRRRRRRRRRRRRRRRRRRRRRRRRRRRRRRRRRRTTTTTTUPJGDZZADFJKITTTTTTTRRRRRRRRRRRRRRRRRRRRRRRRRRRRRRRRRRRRRRRRRRRRRRRRRRR",
"RRRRRRRRRRRRRRRRRRRRRRRRRRRRRRRRRRRRRRRRRRRRRRRTTTTIGmki041:=%%%%%==,17rdcVKTTTTTRRRRRRRRRRRRRRRRRRRRRRRRRRRRRRRRRRRRRRRRRRRRRRR",
"RRRRRRRRRRRRRRRRRRRRRRRRRRRRRRRRRRRRRRRRRRRTTTTIZke1=@oo@%%==========%@@oo@,7pnJTTTTRRRRRRRRRRRRRRRRRRRRRRRRRRRRRRRRRRRRRRRRRRRR",
"RRRRRRRRRRRRRRRRRRRRRRRRRRRRRRRRRRRRRRRRRTTTLmy1@.o$==::::::::::::::::::::==#o@=7kDTTTYRRRRRRRRRRRRRRRRRRRRRRRRRRRRRRRRRRRRRRRRR",
"RRRRRRRRRRRRRRRRRRRRRRRRRRRRRRRRRRRRRRRTTTNy,oo@:::::::::::::::::::::::::::::::=@o$7kJTTTRRRRRRRRRRRRRRRRRRRRRRRRRRRRRRRRRRRRRRR",
"RRRRRRRRRRRRRRRRRRRRRRRRRRRRRRRRRRRRYTTLk4oo%:,:::::::::::::::::::::::::::::::::::=@o=yVTTTRRRRRRRRRRRRRRRRRRRRRRRRRRRRRRRRRRRRR",
"RRRRRRRRRRRRRRRRRRRRRRRRRRRRRRRRRRRTTKs:.@:::::::::::::::::::::::::::::::::::::::::::=o@0NTTTRRRRRRRRRRRRRRRRRRRRRRRRRRRRRRRRRRR",
"RRRRRRRRRRRRRRRRRRRRRRRRRRRRRRRRRTTKs= %,::::::::::::::::::::::::::::::::::::::::::::::=oo7BTTYRRRRRRRRRRRRRRRRRRRRRRRRRRRRRRRRR",
"RRRRRRRRRRRRRRRRRRRRRRRRRRRRRRRTTTk: =:::::::::::::::::::::::::::::::::::::::::::::=::::::oo0DTTRRRRRRRRRRRRRRRRRRRRRRRRRRRRRRRR",
"RRRRRRRRRRRRRRRRRRRRRRRRRRRRRRTTV2 %:::::::::::::::::::::=::::::::::::::::::::::::::::::::::o@aITTRRRRRRRRRRRRRRRRRRRRRRRRRRRRRR",
"RRRRRRRRRRRRRRRRRRRRRRRRRRRRYTIyo@:::::::::::::::::::::::,:,:::::::=:::::::::::=:::::::::::::= ,BTTRRRRRRRRRRRRRRRRRRRRRRRRRRRRR",
"RRRRRRRRRRRRRRRRRRRRRRRRRRRTTZ,.=,:::::::::::::::::::::==@@oo@o@@o@o@@$==:::::::::::::::::::::,@oiYTYRRRRRRRRRRRRRRRRRRRRRRRRRRR",
"RRRRRRRRRRRRRRRRRRRRRRRRRRTTfo@,:::::::::::::::::::=@oo=,6qyadhjjhdpy04:@@o%=::::::::::::::::::,= 1HTTRRRRRRRRRRRRRRRRRRRRRRRRRR",
"RRRRRRRRRRRRRRRRRRRRRRRRYTI0 =::::::::::::::::,:=oo:0pzVGKITTTTTTTTTTILGVky4%o@=::::::::::=:::::,,o@nTTRRRRRRRRRRRRRRRRRRRRRRRRR",
"RRRRRRRRRRRRRRRRRRRRRRRUTH, :::::::::::::::::=@o,rzDLTTIPLLKKKKKKKLLLLIUTTTIDkw=o@::::::::::::::::,@.dTTRRRRRRRRRRRRRRRRRRRRRRRR",
"RRRRRRRRRRRRRRRRRRRRRRYTZ$o,:::::::::::::::%o%qvJYTIKKKKKKKKKKKLKLKLLLLLLLLITTTHk7oo=::::::::::::::,= rTTRRRRRRRRRRRRRRRRRRRRRRR",
"RRRRRRRRRRRRRRRRRRRRRTTmo@,::::::::::::,:%o=iZUTPKJKKKKKKKKLLKKKKLKLLLLLPLLILPITTTVr%o=:::::::::::::,: 7YTRRRRRRRRRRRRRRRRRRRRRR",
"RRRRRRRRRRRRRRRRRRRRTTvo%:::::::::::::,=o=dHTUKJKKKKKKKKKKKKKKLLLLLLLLLLLLILPPPIIYTTDy@o:,::::::::::::: 4ITRRRRRRRRRRRRRRRRRRRRR",
"RRRRRRRRRRRRRRRRRRRTTv.%,:::::::::::::o@iJTPKKJKKKKKKKLKKKLLLLLLLLLLPLLPLIPPIIIIIIIYTTS0o@,:::::::::::::.4ITRRRRRRRRRRRRRRRRRRRR",
"RRRRRRRRRRRRRRRRRRYTmo%,:::::::::::,%o6ZYIJKKJKKKKKKKKKKLLLKLLLLLLPLLLPPPPIIIIIIIIYIYTTTm,.=::::::::::::, 6TTRRRRRRRRRRRRRRRRRRR",
"RRRRRRRRRRRRRRRRRUTZo%::::::::::::,@@jITKJKKKKKKKKKKLKLLLLLKLLLLLPLPPPPIPIIIIIUIYYYYYYYTTIy.@,:::::::::::: wTTRRRRRRRRRRRRRRRRRR",
"RRRRRRRRRRRRRRRRRTJ%@,:::::::::::: 2DTLJKKKKKKLKKKLKKLKLLLLLLLLLPPPPPPIIIIIIIYYYYYYTYTTTTTTm=o,:::::::::::: iTTRRRRRRRRRRRRRRRRR",
"RRRRRRRRRRRRRRRRTI,o,:::::::::::=.rITKKKKKKKKKKKKKLKKLLLLLLLLPPLPLIIIIIIIIIUYYYYTYTYTYTTTTTTJ4 ::::::::::::: zTYRRRRRRRRRRRRRRRR",
"RRRRRRRRRRRRRRRTT0 ,:::::::::::%ohTIJKKKKKKKKLLKLLLLLLLLLLILILPIIIPIIUIUYUYUYYTYYYTTYTTTTTTTTTy =,::=:::::::%oZTRRRRRRRRRRRRRRRR",
"RRRRRRRRRRRRRRYTh :::::::::::,@@mTLJKKKKKLKKKLKLLLLLLLPLLLILPPIIIIIIUUYYYYYYYTTYTTTTTTTTTTTTTTTd %,:::::::::,@=PTRRRRRRRRRRRRRRR",
"RRRRRRRRRRRRRRTAo=::::::::::,@%CTKKKKKKKKKKLLLLLLLLLLPPPPPPIIIIIIIUUUUYYYYTYYTYTTTTTTTTTTTTTTTTTko%,:::::::::,.0TTRRRRRRRRRRRRRR",
"RRRRRRRRRRRRRTI,@:::::::::::@%ZYKKKKLKKLLKLLLLLLLLLPPPPPPPIIIIIIIIUUUYYYTYTYTTTTTTTTTTTTTTTTTTTTTz =,:::::::::: zTYRRRRRRRRRRRRR",
"RRRRRRRRRRRRTTi ,:::::::::,%@VTKKKLKKLLKLLLLLLLLLLPLPPPPIIIIIIUYUUUUYYTYTTTTTTTTTTTTTTTTTTTTTTTTTTk =:::::::::,%$JTRRRRRRRRRRRRR",
"RRRRRRRRRRRRTAo=::::::::::%omTKKKKKLKLLLLLLLLLLIPPPPIPIIIIIIIYYYYYYYYYYTTTTTTTTTTTTTTTTTTTTTTTTTTTTd ::::::::::: 0TTRRRRRRRRRRRR",
"RRRRRRRRRRRTT1o,::::::::::okTLKLLLKLLLLLLLLLILILPPIPIIIIIIUUIYYYTYTTTTTTTTTTTTTTTTTTTTTTTTTTTTTTTTTTr ,:::::::::: mTRRRRRRRRRRRR",
"RRRRRRRRRRRTz ,::::::::::oyYPKLKLKLLLLLLLLPPILLIIIIIIIIUYYYYYTYTYTYTTTTTTTTTTTTTTTTTTTTTTTTTTTTTTTTTU1o,::::::::,@,ITRRRRRRRRRRR",
"RRRRRRRRRRTL=%::::::::::o1UUKKLLLLLLLLPLLPPLPPIIIIIIIUUUYYYYYTYYYTTTTTTTTTTTTTTTTTTTTTTTTTTTTTTTTTTTTJ@$:::::::::, hTTRRRRRRRRRR",
"RRRRRRRRRTTd.,:::::::::=%FTKLLLKLLLLPLLPPPPIIIIIIUUUYYYYYTTYTTTTTTTTTTTTTTTTTTTTTTTTTTTTTTTTTTTTTTTTTTn.::::::::::%=LTRRRRRRRRRR",
"RRRRRRRRRTK=%::::::::::.kYLLKLLLLLLPPPPPPPIIIIIIUYUUYYTYYYYYTTTTTTTTTTTTTTTTTTTTTTTTTTTTTTTTTTTTTTTTTTTeo:::::::::, sTYRRRRRRRRR",
"RRRRRRRRRTd ::::::::::o7TIKLLLPLLLPPPPPIIIIIUUIIYYYYYYTYTTTTTTTTTTTTTTTTTTTTTTTTTTTTTTTTTTTTTTTTTTTTTTTL=%:::::::::%=LTRRRRRRRRR",
"RRRRRRRRTP:%:::::::::=@DTLLLLLPPPPPPPIIIIIIIUUUUYYTYTTYTTTTTTTTTTTTTTTTTTTTTTTTTTTTTTTTTTTTTTTTTTTTTTTTTz :::::::::: hTRRRRRRRRR",
"RRRRRRRRTl ,::::::::, pTPLLLLPPPPPIIIIIIIUYYYYYYYYTYTYTTTTTTTTTTTTTTTTTTTTTTTTTTTTTTTTTTTTTTTTTTTTTTTTTTT4@:::::::::%,ITRRRRRRRR",
"RRRRRRRTT4@:::::::::==KTLLPPPPPPIIIIIIUUUUYYYTYTTYTTTTTTTTTTTTTTTTTTTTTTTTTTTTTTTTTTTTTTTTTTTTTTTTTTTTTTTVo::::::::::XmTRRRRRRRR",
"RRRRRRRTVo:::::::::, dTLLPPPPIIIIIIIUUYYUYYYTYTTTTTTTTTTTTTTTTTTTTTTTTTTTTTTTTTTTTTTTTTTTTTTTTTTTTTTTTTTTT0o:::::::::@0TTRRRRRRR",
"RRRRRRTTi.,::::::::%:KTPLIPPIIIIIIUUUYYYYYTYTYTTTTTTTTTTTTTTTTTTTTTTTTTTTTTTTTTTTTTTTTTTTTTTTTTTTTTTTTTTTTVo:::::::::=%HTRRRRRRR",
"RRRRRRTL,%:::::::::oaTPPIIIIIIUUUUUUYYYYTYYTTYTTTTTTTTTTTTTTTTTTTTTTTTTTTTTTTTTTTTTTTTTTTTTTTTTTTTTTTTTTTTT6@,:::::::: jTRRRRRRR",
"RRRRRRTNo=::::::::=%GTPIIIIIIUUUUUYYTYTTTTTTTTTTTTTTTTTTTTTTTTTTTTTTTTTTTTTTTTTTTTTTTTTTTTTTTTTTTTTTTTTTTTTv.::::::::,@7TTRRRRRR",
"RRRRRRTyo:::::::::oeTYIIIIIIYYYYYYYTYTTYTTTTTTTTTTTTTTTTTTTTTTTTTTTTTTTTTTTTTTTTTTTTTTTTTTTTTTTTTTTTTTTTTTTI,%::::::::=%GTRRRRRR",
"RRRRRTU1%:::::::::omTIIIUIUUYYYYYTYTYTTTTTTTTTTTTTTTTTTTTTTTTTTTTTTTTTTTTTTTTTTTTTTTTTTTTTTTTTTTTTTTTTTTTTTTio,::::::::olTRRRRRR",
"RRRRRTA#=::::::::%,PTIIYYYYYYTYTTTTTTTTTTTTTTTTTTTTTTTTTTTTTTTTTTTTTTTTTTTTTTTTTTTTTTTTTTTTTTTTTTTTTTTTTTTTTZ@:::::::::oeTTRRRRR",
"RRRRRTjo:::::::::oyTYUYYYYTYTYTYTTTTTTTTTTTTTTTTTTTTTTTTTTTTTTTTTTTTTTTTTTTTTTTTTTTTTTTTTTTTTTTTTTTTTTTTTTTTY1@::::::::%,PTRRRRR",
"RRRRRTro:::::::::omTIUYTTYTYYTTTTTTTTTTTTTTTTTTTTTTTTTTTTTTTTTTTTTTTTTTTTTTTTTTTTTTTTTTTTTTTTTTTTTTTTTTTTTTTTpX:::::::::@ZTRRRRR",
"RRRRTI1%::::::::==KTYTYYYTYTTTTTIt8DTk9eeeeweaBTTTTTTTKq9qqq7aTTTTTTTTTTTTTTTTTTTGjw6666qdATTTTTTTTTTTTTTTTTTMo::::::::=ozTRRRRR",
"RRRRTG%=::::::::@0TTYYTYTTYTTTTTIX mT9         <CTTTTTH      >TTTTTTTTTTTTTTTTTA8X         3MTTTTTTTTTTTTTTTTK:=::::::::oyTRRRRR",
"RRRRTNo:::::::::.dTTTTTTTTTTTTTTI; NTr %&&%%%&#  kTTTTJ$+&%% 6TTTTTTTTTTTTTTTTi  +&&&&&%%%#  rTTTTTTTTTTTTTTTT6@::::::::#0TTRRRR",
"RRRRTjo:::::::::omTYTTTTTTTTTTTTI; NTr %&$&$%%$*o vTTTJ$+&%& 6TTTTTTTTTTTTTTY7 +&&&$&%%%%%$*# 5TTTTTTTTTTTTTTTio::::::::%<LTRRRR",
"RRRRTio,:::::::=%FTTTTTTTTTTTTTTI; BTe %#$$$%%&$&XOKTTJ$O&%& 6TTTTTTTTTTTTTT9 %&$&$&$##$&%&%%% qYTTTTTTTTTTTTTzo::::::::==GTRRRR",
"RRRTT0@::::::::=,PTTTTTTTTTTTTTTI; NTr $     *&&%* yTTJ$+%%& 6TTTTTTTTTTTTTs %&%%&$  XX  #*%%*  GTTTTTTTTTTTTTV#=::::::::@VTRRRR",
"RRRTU7%::::::::@7TTTTTTTTTTTTTTTI; BTr ;cvvc7.&%%&X&PTJ$+%%& 6TTTTTTTTTTTTG +%$%&+ 7cCVc0 o*# :ZTTTTTTTTTTTTTTG==::::::::ovTRRRR",
"RRRTL,%::::::::orTTTTTTTTTTTTTTTI; NTr >TTTTT>X%%%$ NTJ$+$$& 6TTTTTTTTTTTTw &&&&# kTTTTTTM+  rYTTTTTTTTTTTTTTTL,=::::::::ojTTRRR",
"RRRTK:=::::::::oiTTTTTTTTTTTTTTTI; NTr >ITTTTu &%%$ lTJ$+&$& 6TTTTTTTTTTTK++$$&$ gTTTTTTTTlOvTTTTTTTTTTTTTTTTTT4@::::::::odYTRRR",
"RRRTG==::::::::odTTTTTTTTTTTTTTTT; NTr >ITTTTi &&$$ lTJ$+$%& 6TTTTTTTTTTTc %&%&.>TTTTTTTTTTKTTTTTTTTTTTTTTTTTTT7@::::::::oiTTRRR",
"RRRTD==::::::::okTTTTTTTTTTTTTTTI; NTr >TTTTT5 %&$$ mTJ$O&$& 6TTTTTTTTTTTy &$&% dTTTTTTTTTTTTTTTTTTTTTTTTTTTTTTw#,:::::::@yTTRRR",
"RRRTA%=::::::::olTTTTTTTTTTTTTi-<$ NTr :ZAAAaX$%&%++JTJ$+$&& 6TTTTTTTTTTT9 &$&# NTTTTTTTTTTTTTTTTTTTTTTTTTTTTTTeo::::::::@rTTRRR",
"RRRTZ$=::::::::ovTTTTTTTTTTTTT<    mT9             6TTJ$+&$& 6TTTTTTTTTTT3 &%$#ODTTTTTTTTTTTTTTTTTTTTTTTTYTYTTTr@::::::::orTTRRR",
"RRRTZ%=::::::::ovTTTTTTTTTTTTTj0ee0DTk0eqqqqereeew0DTTJ$O&$& 6TTTTTTTTTTT7 %%&#.ZTTTTTTTTTTTTTTTTTTTTTTTTYTTYTTro::::::::orTTRRR",
"RRRTS%=::::::::okTTTTTTTTTTTTTTTTTTTTTTTTTTTTTTTTTTTTTJ$+$&% 6TTTTTTTTTTTr &%%$ nTTTTTTTTTTTTTTTTTTTTTTYYTYYYTTe@,:::::::oyTTRRR",
"RRRTF==::::::::okTTTTTTTTTTTTTFNVVNLTGNVVCVVVVVMkLTTTTJ$+%&& 6TTTTTTTTTTTj %%%& tTTTTTTTTTTTTTTTTTTTYTYYYYYYYTTq@::::::::@yTTRRR",
"RRRUH:=::::::::odTTTTTTTTTTTTT5    MT9          eLTTTTJ$O&&& 6TTTTTTTTTTTGX+%%$++KTTTTTTTTKmTTTTTTYYTYTYYYYYITT6@::::::::oaTTRRR",
"RRRTL,%::::::::oyTTTTTTTTTTTTT0 X+ NTe %12<217sGTTTTTTJ$O&$& 6TTTTTTTTTTTT3 &&%* 3TTTTTTTTq 0HTTYTYYYYYYYIYIITP1%::::::::ohTTRRR",
"RRRTI1%::::::::@qTTTTTTTTTTTTTJDA; NTr >TTTTTTTTTTTTTTJ$+&$& 8TTTTTTTTTTTTm $$$&% 6GTTTTKr + +dTTYYYYIYYIIIIITJ:=::::::::olTRRRR",
"RRRTT7@::::::::%4TTTTTTTTTTTTTTTT; NTr >TTTTTTTTTTTTTTJ$O&$*+>ppiiiiiiiuyKT3 *&$%& +qgfw& $&&O -CTUUUUUIIIIIITA%=::::::::omTRRRR",
"RRRRTro::::::::%:LTTTTTTTTTTTTTTI; NTr >ITTTTTTTTTTTTTJ$+$&$*+           CTJX.*&%%*+    O&%%%*+ nTUUIUIIIIPPPTm@::::::::=%ATRRRR",
"RRRRTdo::::::::=$ATTTTTTTTTTTTTTI; NTr >ITTTTTTTTTTTTTJ$+%%$%&%%$&%%%%%#OATTB  *%%%&&$%%%&%$&+ aTYIIIIPIPPPPPTho::::::::=:JTRRRR",
"RRRRTvo:::::::::ovTTTTTTTTTTTTTTI; BTr >ITTTTTTTTTTTTTJ$+$%%&$%%&%%%%%%+XATTTNX $&%%$%%%$%&&  pTTPIIIIPIPPPLPTro::::::::%1YTRRRR",
"RRRRTZ#=::::::::oiTTTTTTTTTTTTTTI; NTe >ITTTTTTTTTTTTTJ$+$%%$$$$$$$$$$$#XATTTTG2  +%&%%%$+  -mTTPIIIIPIPLLLLIL1%::::::::@wTTRRRR",
"RRRRTK,%::::::::@6TTTTTTTTTTTTTTIX nT7 +ITTTTTTTTTTTTTG                  CTTTTTTv3X      +2kITUPIIIPPPLLPLLLTZ==::::::::odTRRRRR",
"RRRRTT7#::::::::==JTTTTTTTTTTTTTYhyHTmyjYTTTTTTTTTTTTTIkklllllllllllllllkKTTTTYTTTDzdssdvGTTYIPIPPILLPLLLLLLTko:::::::::@NTRRRRR",
"RRRRRTpo:::::::::.vTTTTTTTTTTTTTTTTTTTTTTTTTTTTTTTTTTTTTTTTTTTTTTTTTTTTTTTTYYYYYYTTTTTTTTTYIIIPPPLLLLLLLLLKLTwo::::::::==JTRRRRR",
"RRRRRTmo:::::::::owTTTTTTTTTTTTTTTTTTTTTTTTTTTTTTTTTTTTTTTTTTTTTTTTTTTTTTYTYTYYYYIYIYIIIPIIIILLLLLLLLLLKKLKIH:=::::::::#6TTRRRRR",
"RRRRRTK=%::::::::==LTTTTTTTTTTTTTTTTTTTTTTTTTTTTTTTTTTTTTTTTTTTTTTTTTTYYTYYYYYYYYIIIIIIIIPILLLLLLLLLLKKLKKKTz@:::::::::oaTRRRRRR",
"RRRRRTT0o:::::::::ozTTTTTTTTTTTTTTTTTTTTTTTTTTTTTTTTTTTTTTTTTTTTTTTYTTYYYYYYYUIIIIIIIILIILLILLLLLKKLLKKKKKKUwo:::::::::oBTRRRRRR",
"RRRRRRTko:::::::::@7TTTTTTTTTTTTTTTTTTTTTTTTTTTTTTTTTTTTTTTTTTTTTTTYYYYYUYYIIIIIIIIILIILLLLLLLLLLLLKKKKKKKUZ==::::::::%,PTRRRRRR",
"RRRRRRTG$=::::::::=@DTTTTTTTTTTTTTTTTTTTTTTTTTTTTTTTTTTTTTTTTTTTYYYTYYYYUIIIIIIIIIPIILLLLLLLLLLLKKKKKKKJJJTao:::::::::oyTTRRRRRR",
"RRRRRRTT7@,::::::::otTTTTTTTTTTTTTTTTTTTTTTTTTTTTTTTTTTTTTTTYTYYYYYYUUUUIIIIIIIIILLLLLLLLKLLLKKKKKKKKJKJJLJ,%::::=::::oNTRRRRRRR",
"RRRRRRRTz :::::::::=$JTTTTTTTTTTTTTTTTTTTTTTTTTTTTTTTTTTTYTTYYYYYUUUUIUIIIIIIPPPLPLLLLLLLKLLKKKKKKJKKJJJJUho:::::::::%,ITRRRRRRR",
"RRRRRRRTK=%:=:::::::.yTTTTTTTTTTTTTTTTTTTTTTTTTTTTTTTTTYTTYYYYYUUUIIUIIIIILILILLLLLLLLLKLKKKKKJKKJJJJJJHKJ,%::::::::: aTRRRRRRRR",
"RRRRRRRTTyo,::::::::=@HTTTTTTTTTTTTTTTTTTTTTTTTTTTTTTYTTYYYYYYYUUIIIIIIIILLILPLLLLLKLLKLKKKKKKKJJJJJJHJGUdo:::::::::=@HTRRRRRRRR",
"RRRRRRRRTA@=::::::::,owTTTTTTTTTTTTTTTTTTTTTTTTTTTYTYTYYYYYYYYUIIIIIPIPPPLILLLLLLLLLKKKKKKKJKJJJJJJJHHGLD:%::::::::,oeTTRRRRRRRR",
"RRRRRRRRTT0o,::::::::=oBTTTTTTTTTTTTTTTTTTTTTTTTTYTTYYYYUUIIIIIIIIILILPILLLLLLLKLLKKKKKKJKJJJJJJJJJGGGGIro::::::::::oZTRRRRRRRRR",
"RRRRRRRRRTBo:::::::::,@,YTTTTTTTTTTTTTTTTTTTTTTYTYYYYYYYIIIIIIIIIIPILLLLLLLLLLKLKKKKKKJKKJJJJJJJHGGGGGLm@:::::::::,o6TTRRRRRRRRR",
"RRRRRRRRRTT6o,::::::::: iTTTTTTTTTTTTTTTTTYTYTYYYYUUUUUIUIIIIIPPIPLLLLLLLKLLLKKKKKKKKJJJJJJJJGGGGGGGDKJ,@::::::::::.BTRRRRRRRRRR",
"RRRRRRRRRRTZo=:::::::::=oBTTTTTTTTTTTTTTTTTYTYYYUUUUUIIIIIIIILPPLPLLLLLLLLLKKKKKKKKJJKJJJJJHJGGGGGGDGPro::::::::::o0TTRRRRRRRRRR",
"RRRRRRRRRRTT0o,:::::::::#%KTTTTTTTTTTYTYTYYYYYYYIUIIIIIIIIIPPLLPLLLLLLLKLKKKKJKKJJJJJJJJGJGGGGGGGFFDPko::::::::::=oDTRRRRRRRRRRR",
"RRRRRRRRRRRTH@%:::::::::,o4TTTTTTTTTTTYTYTYYYIUYIIIIIIIIILPLLLLLLLLLLKLKKKKKJKJKJJJJJJGJGGGGGGGFFDDLB%=:::::::::, yTTRRRRRRRRRRR",
"RRRRRRRRRRRYYd ,:::::::::,.yTTTTTTTYTYYYYYYUIUIIIIIIILILLILLLLLLLLKKKKKKKKJKKJJJJJJJHHGGGGGGGFFDDZJD:@:::::::::,%%KTRRRRRRRRRRRR",
"RRRRRRRRRRRRTU,@::::::::::: hTTYTYTYYYYYUYIUUUIIIIPILILILLLLLLKLLKLKKKKKKJKJJJJJJJGGGGGGGGFDDFDDDJJ4@::::::::::: xTYRRRRRRRRRRRR",
"RRRRRRRRRRRRRTVo=::::::::::= kTTYYYYYYUUIIUIIIIIPPILPPLLLLLLLLKLKKKKKKJKJJJJJJJJGGGGGFGFFFFDDDDZJJ7o:::::::::::o7TTRRRRRRRRRRRRR",
"RRRRRRRRRRRRRTTa :::::::::::= lTTIYYYUUIUIIIPIPPILPLLLLLLKLKKKKKKKKJJJKJJJJJJGGGGGGGFFFFDDDDDDZJJ7o:::::::::::%%KYRRRRRRRRRRRRRR",
"RRRRRRRRRRRRRRTY1o,::::::::::=.jTTUUUUIIIIIIIPPPLLLLLLLLLLLKKKKKKKJKJJJJJJJGGGGGGGGFFFDFDDDSSZJG7o:::::::::::= nTYRRRRRRRRRRRRRR",
"RRRRRRRRRRRRRRRTJ@$,:::::::::,= aTTPIIIIIPPPPLLLLLLLLLLKLKKKKKKKJJKJJJJJJGJGGGGGGGFFDDDDDDSZZKD1o:::::::::::: iTTRRRRRRRRRRRRRRR",
"RRRRRRRRRRRRRRRYTm =,::::::::::= wUTUIPPPPPLLPLLLLLLKLKLKKKJKJJJJJJJJGJGGGGGGGGGDDDDDDSSZZZDKN:@:::::::::::,o4TTRRRRRRRRRRRRRRRR",
"RRRRRRRRRRRRRRRRYTg :::::::::::,=o1GTULPLLLLLLLLLLKKKKKKKKJKJKJJJJJJJGGGGGGDDDDDDDDDDSSSZZGKh%@,::::::::::,@=KTRRRRRRRRRRRRRRRRR",
"RRRRRRRRRRRRRRRRRTTr ::::::::::::,o%kTTLLLLLLLLLKLKKKKKJKJKJJJJJJJGGGGGGDGGDDDDDZDDZSSZZZKDwo=::::::::::::$@DTYRRRRRRRRRRRRRRRRR",
"RRRRRRRRRRRRRRRRRRTT7.,::::::::::::%.wJTULLLLKKKKKKKKKJKJJJJJJJGGGGGGGGDGGDDDDDDDDZDZZZGJc,o::::::::::::,%oBTYRRRRRRRRRRRRRRRRRR",
"RRRRRRRRRRRRRRRRRRRTI4 ,::::::::::::: =kUTPKKLKKKKKJJJKJJJGJGGGJGGGGGGGDDDDDDDDZZDZZZDKVw@@,::::::::::::% mTYRRRRRRRRRRRRRRRRRRR",
"RRRRRRRRRRRRRRRRRRRRTI4 :::::::::::::,% 4mTTPJKKKJKJJJJJJJJGGGGGGGDGDDDDDDDZDZZDZZZDJZa=@=,::::::::::::%ovTYRRRRRRRRRRRRRRRRRRRR",
"RRRRRRRRRRRRRRRRRRRRRTI6 :::::::::::::::@o7mPTPKKJJJJJJJJGGGGGGGDGGDDDDDDZDDZZZZZGJZa,@=:::::::::::::,$ovTTRRRRRRRRRRRRRRRRRRRRR",
"RRRRRRRRRRRRRRRRRRRRRRTTw =,::::::::::::::@o4kJUIKJJJJGGGGGGGFFFDDDDDDDDDZZZZZDJGmi,@%::::::::::::::,@@NTTRRRRRRRRRRRRRRRRRRRRRR",
"RRRRRRRRRRRRRRRRRRRRRRRTTi %::::::::::::::::@o:ymJIIKJGGGGGFFFDDDDDDZDDZZDDGJGBd0=o=::::::::::::::::o=DTTRRRRRRRRRRRRRRRRRRRRRRR",
"RRRRRRRRRRRRRRRRRRRRRRRRTTko@,::::::::::::::::=o@1ykVJLLKKJJGFGFDDDDDGGJJGZvd0:@@=::::::::::::::::: 4KTYRRRRRRRRRRRRRRRRRRRRRRRR",
"RRRRRRRRRRRRRRRRRRRRRRRRRTTZ=o::::::::::::::::::=%@@:4rdzNVDGGJJJGDDVBvhi01=@@=:::::::::::::::::,%oyUTIRRRRRRRRRRRRRRRRRRRRRRRRR",
"RRRRRRRRRRRRRRRRRRRRRRRRRRYTK0 %::::::::::::::::::::=%@@@=:14700w0741,=@@@=:::::::::::::::::::,:o%zUTRRRRRRRRRRRRRRRRRRRRRRRRRRR",
"RRRRRRRRRRRRRRRRRRRRRRRRRRRRTTk$o::::::::::::::::::::::::==%%@$@@@=%%==::::::::::::::::::::::,%.7JTTRRRRRRRRRRRRRRRRRRRRRRRRRRRR",
"RRRRRRRRRRRRRRRRRRRRRRRRRRRRRTTH0.@,::::::::::::::::::::::::::,:::::::::::::::::::::::::::::=o%kTTYRRRRRRRRRRRRRRRRRRRRRRRRRRRRR",
"RRRRRRRRRRRRRRRRRRRRRRRRRRRRRRYTTn,.%,:::::::::::::::::::::::::::::::::::::::::::::::::::::oorKTTRRRRRRRRRRRRRRRRRRRRRRRRRRRRRRR",
"RRRRRRRRRRRRRRRRRRRRRRRRRRRRRRRRTTId= %::::::::::::::::::::::::::::::::::::::::::::::::::@o7VTTYRRRRRRRRRRRRRRRRRRRRRRRRRRRRRRRR",
"RRRRRRRRRRRRRRRRRRRRRRRRRRRRRRRRRRTTKa=.%::::::::::::::::::::::::::::::::::::::::::::,=oo7NTTTRRRRRRRRRRRRRRRRRRRRRRRRRRRRRRRRRR",
"RRRRRRRRRRRRRRRRRRRRRRRRRRRRRRRRRRRYTTKh,o@=::::::::::::::::::::::::::::::::::::::::%.%qBYTTRRRRRRRRRRRRRRRRRRRRRRRRRRRRRRRRRRRR",
"RRRRRRRRRRRRRRRRRRRRRRRRRRRRRRRRRRRRRYTTIv0%.@=::::::::::::::::::::::::::::::::::%oo,aDTTTRRRRRRRRRRRRRRRRRRRRRRRRRRRRRRRRRRRRRR",
"RRRRRRRRRRRRRRRRRRRRRRRRRRRRRRRRRRRRRRRRTTTFh7%oo%=::::::::::::::::::::::::::=@oo,ymUTTTRRRRRRRRRRRRRRRRRRRRRRRRRRRRRRRRRRRRRRRR",
"RRRRRRRRRRRRRRRRRRRRRRRRRRRRRRRRRRRRRRRRRRTTTTFlw1@oo@==:::::::::,,::::==@oo@=4aNLTTTRRRRRRRRRRRRRRRRRRRRRRRRRRRRRRRRRRRRRRRRRRR",
"RRRRRRRRRRRRRRRRRRRRRRRRRRRRRRRRRRRRRRRRRRRRRTTTTLZli7,=@oooooo@ooooooo$:4edmJTTTTTRRRRRRRRRRRRRRRRRRRRRRRRRRRRRRRRRRRRRRRRRRRRR",
"RRRRRRRRRRRRRRRRRRRRRRRRRRRRRRRRRRRRRRRRRRRRRRRRYTTTTTPFBvkdpyrrryuagzNZJUTTTTTRRRRRRRRRRRRRRRRRRRRRRRRRRRRRRRRRRRRRRRRRRRRRRRRR",
"RRRRRRRRRRRRRRRRRRRRRRRRRRRRRRRRRRRRRRRRRRRRRRRRRRRRRTTTTTTTTTTTTTTTTTTTIUTRRRRRRRRRRRRRRRRRRRRRRRRRRRRRRRRRRRRRRRRRRRRRRRRRRRRR",
"RRRRRRRRRRRRRRRRRRRRRRRRRRRRRRRRRRRRRRRRRRRRRRRRRRRRRRRRRRTTTTTTTTTTTRRRRRRRRRRRRRRRRRRRRRRRRRRRRRRRRRRRRRRRRRRRRRRRRRRRRRRRRRRR",
"RRRRRRRRRRRRRRRRRRRRRRRRRRRRRRRRRRRRRRRRRRRRRRRRRRRRRRRRRRRRRRRRRRRRRRRRRRRRRRRRRRRRRRRRRRRRRRRRRRRRRRRRRRRRRRRRRRRRRRRRRRRRRRRR",
"RRRRRRRRRRRRRRRRRRRRRRRRRRRRRRRRRRRRRRRRRRRRRRRRRRRRRRRRRRRRRRRRRRRRRRRRRRRRRRRRRRRRRRRRRRRRRRRRRRRRRRRRRRRRRRRRRRRRRRRRRRRRRRRR",
"RRRRRRRRRRRRRRRRRRRRRRRRRRRRRRRRRRRRRRRRRRRRRRRRRRRRRRRRRRRRRRRRRRRRRRRRRRRRRRRRRRRRRRRRRRRRRRRRRRRRRRRRRRRRRRRRRRRRRRRRRRRRRRRR"
};
