/* XPM */
static char *_519209793659[] = {
/* columns rows colors chars-per-pixel */
"16 16 95 2 ",
"   c black",
".  c #010101",
"X  c #060606",
"o  c gray3",
"O  c #0E0E0E",
"+  c #141312",
"@  c #1D1D1D",
"#  c gray13",
"$  c #222220",
"%  c #252423",
"&  c gray15",
"*  c #272727",
"=  c gray16",
"-  c gray17",
";  c #2F2F2F",
":  c #353535",
">  c gray21",
",  c #3A3A3A",
"<  c #434343",
"1  c gray27",
"2  c #484848",
"3  c #4B4B4B",
"4  c #4C4C4C",
"5  c #4E4E4E",
"6  c #555555",
"7  c #565654",
"8  c #565656",
"9  c #5A5959",
"0  c #626262",
"q  c #686868",
"w  c #6B6B6A",
"e  c gray42",
"r  c #6C6C6C",
"t  c #6F6F6F",
"y  c #727272",
"u  c #737272",
"i  c #737372",
"p  c #777675",
"a  c #7B7B7B",
"s  c #7C7C7C",
"d  c gray49",
"f  c #7E7E7E",
"g  c #838383",
"h  c #848484",
"j  c #8D8D8D",
"k  c gray56",
"l  c #909090",
"z  c gray57",
"x  c #929292",
"c  c #939393",
"v  c #9D9C9C",
"b  c #9E9E9C",
"n  c #9E9E9D",
"m  c #A0A09F",
"M  c #A0A0A0",
"N  c #A4A4A4",
"B  c #A6A6A5",
"V  c #A8A8A7",
"C  c #A9A9A9",
"Z  c #ACACAC",
"A  c gray68",
"S  c #AEAEAE",
"D  c #B1B1B1",
"F  c #B2B2B2",
"G  c gray70",
"H  c #B4B4B4",
"J  c gray71",
"K  c #BCBCBC",
"L  c gray",
"P  c gray75",
"I  c #C0C0C0",
"U  c #C1C1C1",
"Y  c #C3C3C3",
"T  c #C5C5C5",
"R  c gray78",
"E  c gray79",
"W  c #D3D3D2",
"Q  c #DADADA",
"!  c gray88",
"~  c gray89",
"^  c gray90",
"/  c gray93",
"(  c #EEEEEE",
")  c #EFEFEE",
"_  c #F1F1F1",
"`  c #F4F4F4",
"'  c #F4F4F5",
"]  c gray96",
"[  c gray97",
"{  c #F8F8F9",
"}  c #F9FAFA",
"|  c #FBFBFB",
" . c #FEFEFE",
".. c white",
"X. c None",
/* pixels */
"X.X.X.X.X.X.S s s G X.X.X.X.X.X.",
"X.X.X.X.w             s X.X.X.X.",
"X.X.X.@   8 G ! ! G 3   & X.X.X.",
"X.X.#   L ............H   - X.X.",
"X.y   R ..` ' ..........L   h X.",
"X.  8 ....................1   X.",
"S   R ..v q S b ..! 3 t ..R   U ",
"a   ' ) p $ + w .., s S ..!   l ",
"s   | ^ 7 B N % V ; y m ..!   l ",
"G   R ..v ..| 0 t W 9 y ..K   X.",
"X.  5 ....................< o X.",
"X.a   L ....' ' ) ! Q ..S   l X.",
"X.X.&   H ....' ) ` | C   : X.X.",
"X.X.X.-   3 C E L M 1   : X.X.X.",
"X.X.X.X.h o         O j X.X.X.X.",
"X.X.X.X.X.X.U l l X.X.X.X.X.X.X."
};
