/* XPM */
static char *_519209788420[] = {
/* columns rows colors chars-per-pixel */
"32 32 234 2 ",
"   c black",
".  c #010101",
"X  c #020202",
"o  c gray1",
"O  c #040404",
"+  c gray2",
"@  c #060606",
"#  c #070707",
"$  c gray3",
"%  c #090909",
"&  c gray4",
"*  c #0B0B0B",
"=  c #0C0C0C",
"-  c gray5",
";  c #0E0E0E",
":  c gray6",
">  c #10100E",
",  c #101010",
"<  c #111111",
"1  c gray7",
"2  c #131313",
"3  c gray8",
"4  c #151515",
"5  c #161616",
"6  c gray9",
"7  c #181818",
"8  c #191919",
"9  c gray10",
"0  c #1B1B1B",
"q  c gray11",
"w  c #1D1D1D",
"e  c #1E1E1E",
"r  c gray12",
"t  c #20201F",
"y  c #202020",
"u  c gray13",
"i  c #222120",
"p  c #222222",
"a  c #232323",
"s  c #252522",
"d  c gray14",
"f  c #252525",
"g  c gray15",
"h  c #272727",
"j  c #282828",
"k  c gray17",
"l  c gray18",
"z  c #32312E",
"x  c gray19",
"c  c #313131",
"v  c #333331",
"b  c #353534",
"n  c #353535",
"m  c #3A3A38",
"M  c #3C3C3C",
"N  c #3E3E3E",
"B  c gray26",
"V  c #444444",
"C  c gray27",
"Z  c #464646",
"A  c #474746",
"S  c #484746",
"D  c gray29",
"F  c #4D4C4B",
"G  c gray30",
"H  c #4E4E4D",
"J  c #4E4E4E",
"K  c #4F4F4E",
"L  c gray31",
"P  c #53524F",
"I  c #515151",
"U  c gray32",
"Y  c #565656",
"T  c gray35",
"R  c #5A5A5A",
"E  c #5B5B5B",
"W  c #5E5E5C",
"Q  c #5F5F5D",
"!  c #5E5D5E",
"~  c gray37",
"^  c #5F5F5F",
"/  c #5F605E",
"(  c #606060",
")  c #626262",
"_  c gray39",
"`  c gray40",
"'  c #686868",
"]  c DimGray",
"[  c #6B6A68",
"{  c gray42",
"}  c #6C6C6C",
"|  c #6D6D6D",
" . c #6F6F6F",
".. c #717171",
"X. c #727272",
"o. c gray45",
"O. c gray46",
"+. c #787776",
"@. c gray47",
"#. c #797979",
"$. c #7A7978",
"%. c #7E7E7E",
"&. c #818181",
"*. c #828281",
"=. c #848382",
"-. c #858482",
";. c gray52",
":. c #868684",
">. c #898989",
",. c #8A8A88",
"<. c #8A8A89",
"1. c #8B8B8B",
"2. c #8D8D8A",
"3. c gray55",
"4. c #8D8D8C",
"5. c #8E8E8E",
"6. c gray56",
"7. c #909090",
"8. c #929291",
"9. c #929292",
"0. c #949493",
"q. c #959595",
"w. c gray59",
"e. c #979796",
"r. c #979797",
"t. c #9A9A9A",
"y. c #9B9B9B",
"u. c #9D9D9D",
"i. c gray62",
"p. c #9F9F9F",
"a. c #A0A0A0",
"s. c #A2A2A0",
"d. c #A3A2A1",
"f. c #A5A5A4",
"g. c gray65",
"h. c #A7A6A6",
"j. c #A7A7A6",
"k. c gray66",
"l. c #A9A8A8",
"z. c #A9A9A9",
"x. c #AEAEAE",
"c. c #AFAFAF",
"v. c gray69",
"b. c #B1B1B1",
"n. c #B2B2B1",
"m. c #B2B2B2",
"M. c #B4B4B3",
"N. c #B4B4B4",
"B. c gray71",
"V. c #B6B5B5",
"C. c #B7B7B7",
"Z. c gray72",
"A. c gray73",
"S. c #BBBBBB",
"D. c #BCBCBB",
"F. c #BDBDBC",
"G. c gray74",
"H. c gray",
"J. c #BFBEBE",
"K. c gray75",
"L. c #C0C0C0",
"P. c #C3C2C1",
"I. c gray77",
"U. c #C4C4C5",
"Y. c #C6C6C5",
"T. c #C6C7C5",
"R. c #C6C6C6",
"E. c gray78",
"W. c #C8C8C8",
"Q. c gray79",
"!. c #CAC9C8",
"~. c #CACACA",
"^. c #CBCBCB",
"/. c #CCCCCB",
"(. c #CDCDCD",
"). c #CECECE",
"_. c #CECFCF",
"`. c #D0D0D0",
"'. c gray82",
"]. c #D2D2D2",
"[. c #D2D2D3",
"{. c LightGray",
"}. c #D3D4D3",
"|. c #D5D5D5",
" X c gray84",
".X c #D7D7D7",
"XX c #D8D8D8",
"oX c #D9D9D8",
"OX c gray85",
"+X c #DADADA",
"@X c gray86",
"#X c #DCDBDB",
"$X c gainsboro",
"%X c #DDDCDC",
"&X c #DDDDDD",
"*X c gray87",
"=X c #DFDFDF",
"-X c gray88",
";X c #E2E2E2",
":X c gray89",
">X c #E3E4E2",
",X c #E4E4E4",
"<X c gray90",
"1X c #E6E6E6",
"2X c #E7E7E7",
"3X c gray91",
"4X c #E9E9E8",
"5X c #E9E9E9",
"6X c #EAEAEA",
"7X c gray92",
"8X c #ECEBEB",
"9X c #ECECEC",
"0X c gray93",
"qX c #EEEEEE",
"wX c #EFEFEF",
"eX c gray94",
"rX c #F1F1F1",
"tX c gray95",
"yX c #F3F3F3",
"uX c #F4F4F4",
"iX c gray96",
"pX c #F6F6F6",
"aX c gray97",
"sX c #F7F8F7",
"dX c #F8F8F8",
"fX c #F9F9F9",
"gX c gray98",
"hX c #FAFAFB",
"jX c #FBFBFB",
"kX c gray99",
"lX c #FDFDFD",
"zX c #FEFEFE",
"xX c white",
"cX c None",
/* pixels */
"cXcXcXcXcXcXcXcXcXcXcXcXcXcX1X*X@X1XcXcXcXcXcXcXcXcXcXcXcXcXcXcX",
"cXcXcXcXcXcXcXcXcXcXcX'.q.| J B Z I ..y.@XcXcXcXcXcXcXcXcXcXcXcX",
"cXcXcXcXcXcXcXcXcXg.D 3 . $ $ $ $ $ # . 3 I v.cXcXcXcXcXcXcXcXcX",
"cXcXcXcXcXcXcXQ.N . < 7 $ $ 3 a r 3 # $ 3 - # Z @XcXcXcXcXcXcXcX",
"cXcXcXcXcXcXq.. < a . f { a.F.'.'.F.u._ r . a # - v.cXcXcXcXcXcX",
"cXcXcXcXcX;.. f - 3 >.1XxXxXxXxXxXxXxXxX1X#.< < r . a.cXcXcXcXcX",
"cXcXcXcXu.. k . N *XxXtX1X1X5X7XqXtXiXiXxXxX`.c # f . S.cXcXcXcX",
"cXcXcX|.. f . Y xXxX;X5XqXqXtXyXiXfXxXxXxXxXxXfXB # r < 5XcXcXcX",
"cXcXcXN $ - N xXfX1XqXqXtXiXiXfXxXxXxXxXxXxXxXxXxXk < . E cXcXcX",
"cXcXc.. a 3 5XxX5XtXtXiXfXfXxXxXxXxXxXxXxXxXxXxXxX;X$ a . (.cXcX",
"cXcXZ - . 5.xXqXtXiXfXxXxXxXxXxXxXxXxXxXxXxXxXxXxXxX%.. # E cXcX",
"cX|.< 7 a iXxXdXxXxXxXxXxXxXxXxXxXxXxXxXxXxXxXxXxXxXqX7 3 a cXcX",
"cXy.. # { xXxXfX>X@XS.@XxXqXF.;XxXxXxXxX@Xv.@XxXxXxXxXE $ $ v.cX",
"cX| # # z.xXxXtX-.Z . . V.R.. =.xXxXxX&.. . . E xXxXxXy.. . 5.cX",
"5XJ # < R.xXxXxX-.F k.z . l.. ,.xXxXg.. m g.c N fXxXxXS.- # { fX",
"@XZ $ r |.xXxXR.[ $./.J > g.. 2.xXxXm . iXxXxXxXxXxXxXQ.3 # E qX",
"%XZ $ r |.xXxXe.2.R.c / 5XL.. a.xXxXJ . 5XxXxXxXxXfXxXR.7 # R qX",
"5XI $ < R.xXxXQ.Q Q >.!.xXv.. P 8.8.a.. s 8.t t tXxXxXC.- # | fX",
"cX..# . g.xXxXxX$.S qXxXxXc.. . . . P.F.. . . O.sXtXxXq.o . 8.cX",
"cXa.. # ` xXxXkX;X%XiXxXxXtX}.'.'.(.tXxX5XR.5XxXtX5XxXR $ $ S.cX",
"cX=X3 7 r iXxXxXxXxXxXxXxXxXxXxXxXxXxXtXxXxXxX5X1XfX@X3 3 h cXcX",
"cXcXI $ . ;.xXxXxXxXxXxXxXxXfXdXiXtXtXqX5X5X1X;X|.xX..# . { cXcX",
"cXcXF.. r $ 1XxXxXxXxXfXfXfXiXtXtXqX5X1X1X*X*X'.fXQ.$ a # @XcXcX",
"cXcXcXJ # < c xXxXfXfXdXyXtXqXqX5X5X;X;X@X@X(.1XqXh 7 . | cXcXcX",
"cXcXcX1X$ r # B hXxXtXqXqXqX1X1X;X*X@X.X'.Q.qX1Xb - 3 y cXcXcXcX",
"cXcXcXcXV.. a # x '.xXxX1X;X*X@X.X{.(.^.*XiXS.k - q . '.cXcXcXcX",
"cXcXcXcXcXa.. r 2 - O.@XxXxXtXqX1X2X5X2XF.| $ 7 3 . S.cXcXcXcXcX",
"cXcXcXcXcXcXV.< o a . r R 5.z.v.c.a.&.I r $ a . a Q.cXcXcXcXcXcX",
"cXcXcXcXcXcXcX;XI $ $ < $ $ < 7 7 < - - 3 . * _ cXcXcXcXcXcXcXcX",
"cXcXcXcXcXcXcXcXcXF.^ a - . # # # # . - f ` (.cXcXcXcXcXcXcXcXcX",
"cXcXcXcXcXcXcXcXcXcXcXcXc.1.{ R E | 8.V.cXcXcXcXcXcXcXcXcXcXcXcX",
"cXcXcXcXcXcXcXcXcXcXcXcXcXcXfXwXwXcXcXcXcXcXcXcXcXcXcXcXcXcXcXcX"
};
