/* XPM */
static char *_519209783025[] = {
/* columns rows colors chars-per-pixel */
"64 64 69 1 ",
"  c #020202",
". c #080704",
"X c #0C0B06",
"o c #0B0B0B",
"O c #100F0C",
"+ c #13120D",
"@ c #18160F",
"# c #131313",
"$ c #181713",
"% c #1C1B15",
"& c #1C1C1C",
"* c #22211D",
"= c #242424",
"- c #2D2D2D",
"; c #31302D",
": c #323232",
"> c #3A3A37",
", c #3C3C3C",
"< c #403F3D",
"1 c #41403F",
"2 c #444444",
"3 c #484846",
"4 c #4C4C4C",
"5 c #51514F",
"6 c #535353",
"7 c #595856",
"8 c #5C5C5B",
"9 c #60605D",
"0 c #646464",
"q c #686766",
"w c #696967",
"e c #6B6B6B",
"r c #71716F",
"t c #727272",
"y c #787775",
"u c #797977",
"i c #7B7B7B",
"p c #848484",
"a c #888784",
"s c #8C8C8B",
"d c #949393",
"f c #989795",
"g c #999997",
"h c #9B9B9B",
"j c #A0A09F",
"k c #A5A5A4",
"l c #A8A7A6",
"z c #A9A8A7",
"x c #ACACAB",
"c c #B0AFAE",
"v c #B1B0AF",
"b c #B3B3B3",
"n c #B9B8B7",
"m c #BBBBBB",
"M c #C0C0BF",
"N c #C3C4C3",
"B c #CCCCCB",
"V c #D3D3D3",
"C c #D7D8D7",
"Z c #DCDCDC",
"A c #E4E4E4",
"S c #E7E8E7",
"D c #E8E8E7",
"F c #ECECEC",
"G c #EFEFF0",
"H c #F4F4F4",
"J c #F7F8F8",
"K c #FEFEFE",
"L c None",
/* pixels */
"LLLLLLLLLLLLLLLLLLLLLLLLLLLLLLLLLLLLLLLLLLLLLLLLLLLLLLLLLLLLLLLL",
"LLLLLLLLLLLLLLLLLLLLLLLLLLLLKKKKKKKKLLLLLLLLLLLLLLLLLLLLLLLLLLLL",
"LLLLLLLLLLLLLLLLLLLLLLLLKKCvjsurtisknZKKLLLLLLLLLLLLLLLLLLLLLLLL",
"LLLLLLLLLLLLLLLLLLLLLKZh0:&o o o... o=,tzGKLLLLLLLLLLLLLLLLLLLLL",
"LLLLLLLLLLLLLLLLLLLKz6& .#=----------=#  =qmKLLLLLLLLLLLLLLLLLLL",
"LLLLLLLLLLLLLLLLLKh: o=;;;---------------& o3bKLLLLLLLLLLLLLLLLL",
"LLLLLLLLLLLLLLLKb> #-:--------=-----;;----;-o 4VKLLLLLLLLLLLLLLL",
"LLLLLLLLLLLLLLH8 o:------=#oooo##oo o#=;----:- oaKLLLLLLLLLLLLLL",
"LLLLLLLLLLLLKB= -;---;-o &2eslbmmbksq,% o-----:& 2FLLLLLLLLLLLLL",
"LLLLLLLLLLLKl o:---;= o4fVHKKKKKKKKKKJBd2o.-;--;; =CLLLLLLLLLLLL",
"LLLLLLLLLLKd &:--;-o#0MKKJSASADDSFSFGJKKKn5 o;---:ooBLLLLLLLLLLL",
"LLLLLLLLLKd =:--:& 4NKKAZASSDDFFFFFGGGHHKKKm, =:-->o.VLLLLLLLLLL",
"LLLLLLLLKx =;--:oogKKAAASDDFDFFFGGHHHHHJJJKKKi #:--:#oZLLLLLLLLL",
"LLLLLLLLV &;--: =CKDZAASDDFFFFGGGHHHHHJJJKKKKKM$o:--:.=JLLLLLLLL",
"LLLLLLLH=o:--: :GKZADFFDFFFFGGGHHHJJJJKKKKKKKKKZ&.:--: 8KLLLLLLL",
"LLLLLLKq ;--: >KKZFDDFFFFGGGHHHHHJJKKKKKKKKKKKKKS&o:--- lLLLLLLL",
"LLLLLLm ---:o=HKADDFFFFFGHGHHJJJJKJKKKKKKKKKKKKKKAo$:-;##GLLLLLL",
"LLLLLK>o:--&oCKADFFFFHHHHHHJJJJKKKKKKKKKKKKKKKKKKKM =--: eKLLLLL",
"LLLLLj ;--- jKSFFFFGGHHHJJJJKJKKKKKKKKKKKKKKKKKKKKKp :---.CLLLLL",
"LLLLK:#;-:.4KGFFGGHHHHJHJJKKKKKKKKKKKKKKKKKKKKKKKKKK:o;-: eKLLLL",
"LLLLv ;--=oCKDGGGHHHHJJKJKKKKKKKKKKKKKKKKKKKKKKKKKKKN ---=#SLLLL",
"LLLK7 --: eKHGHHHHJJKJKKKKKKKKKKKKKKKKKKKKKKKKKKKKKKK3.:-: sLLLL",
"LLLA&=--=oVKGHHJJJJKKKKKKKKKKKKKKKKKKKKKKKKKKKKKKKKKKn ---O2KLLL",
"LLLj --:o6KKHHJJJKKJKKKKKKKKKKKKKKKKKKKKKKKKKKKKKKKKKK>#--=#CLLL",
"LLK0o--- jKHJKJKKKKKKKKKKKKKKKKKKKKKKKKKKKKKKKKKKKKKKKp ;-- gLLL",
"LLK:#--=&ZKKJKKKNNDkkjzSKKKBhhxKKKKKKKKKHxdfzFKKKKKKKKNo---o0KLL",
"LLC&=--o2KKKKKKK63n    OdKK0  #KKKKKKKKd&    $pKKKKKKKJ:#-:#1KLL",
"LLbo--:oeKKKKKKKq8N   +X zKu  ;KKKKKKKq XX  X+ 4JKKKKKK6o;-&-FLL",
"LKj :-- hKKKKKKKw8m.78*%.*Ka .;KKKKKKg & $q0%  -GKKKKKKt.--=#NLL",
"LKs ---oxKKKKKKKr8c+KKl @ Sd .;KKKKKH%.+&ZKKA-eKKKKKKKKg ---onKL",
"LKu.---omKKKKKKK99cOKKb + Af .-KKKKKb % xKKKKKKKKKKKKKKk.---oxKL",
"LKr.--=#NKKKKKK> tb 68+  $Ka .;KKKKKd +XAKKKKKKKKKKKKKKzo---.zKL",
"LKto--=#NKKKKKKmzAHmhfbndBKi .;KKKKKh +XZKKKKKKKKKKKKJKzo--- zKL",
"LKio---onKKKKKKytNAiw0qtZKKu .;KKKKKV @ dKKKKAKKKKJJJJKl ---ocKL",
"LKs ---oxKKKKKKy.9c rytxHKKi  ;KKKKKK> $OnKKN#<VKJJJHHKs.---onKL",
"LKk --: dKKKKKKKy8x$KKKKKKKu $*2222>zZ ++ 22XX  CKHJHHKr.;-=&VLL",
"LLno--- eKKKKKKKq8xXGKKKKKKu %+     7Kh  O  X  tJJHGGHK4#--&;HLL",
"LLA==--#2KKKKKKK74z GKKKKKKe ...... 9KKm1X  X<vKJGGGFKS-&--#2KLL",
"LLK1#--=$ZKKKKKKBBSbJKKKKKKZmNMMmNNmCKKKKBvvVKKHGGGGDKb.--; tLLL",
"LLKr ;-; dKKKKKKKKKKKKKKKKKKKKKKKKKKKKJHKKKKKJFGFDDDDKt.--; zLLL",
"LLLx.;-;o3KKKKKKKKKKKKKKKKKKKKKKKKJJJJJHHGHGGFFFSSAAGG-&;-&&ALLL",
"LLLH=&---.BKKKKKKKKKKKKKKKKKKKKKJJJJHHGHHGGDFFDDSAAZKj ---o6KLLL",
"LLLKe :-: 8KKKKKKKKKKKKKKKKKKJKJJJHHHHGGGGFDDDAAZZZAH,#--- kLLLL",
"LLLLB ---= BKKKKKKKKKKKKKKKJJJHJHHHHGGGFDDDDAAZZZZVKf ;--&-GLLLL",
"LLLLK4.:-:.,KKKKKKKKKKKJKJJJJHHHHGGGDFFDDDAAZZZZZVSA=$;-: pLLLLL",
"LLLLLM ---: sKKKKKKKKKKJJJJJHHHGGGFFFDDDAAZZZZVVVVK8 :--&&GLLLLL",
"LLLLLK5 :--= BKKKKKJJKJJHHHGGGFFDFDDDAAZZZZZCVVVBKd ---: sLLLLLL",
"LLLLLLZ.&--:##AKJKKJJJHHHHGGGGFFDDDAZAZZZCVVVVBBHb.=--:o:KLLLLLL",
"LLLLLLKd ;;-:o=AKJHJHHHHGFFFFFSSAAAZZZZVVVVVVBNHm##:--= BLLLLLLL",
"LLLLLLLK4 :;-:o&ZKJHHHGGFFFFSAAAAZZZZCVVVBBBNBHb##:--: aKLLLLLLL",
"LLLLLLLLF&o:--:o#mKKDFFFDDDDSAZZZCVCVVVBBBBNCGso#:--: 6KLLLLLLLL",
"LLLLLLLLLZoo:--:# tKKGDDSAAAZZZZCCVVVBBBBNBFV7 =:--: :JLLLLLLLLL",
"LLLLLLLLLLB.#:--:= :cKKGZZZZZZVVVVVBBBNNVSCs=.---;: =FLLLLLLLLLL",
"LLLLLLLLLLLBoo:---:# 2zGKKAZVVVBBBBNBVAABs,.&:---: ;GLLLLLLLLLLL",
"LLLLLLLLLLLLZ= -:--:-o >ubCSGGGSSAAACMh0-o#----:= 6KLLLLLLLLLLLL",
"LLLLLLLLLLLLLH6 #:---;:#.o;6eisddpi03-oo&-:---:o iKLLLLLLLLLLLLL",
"LLLLLLLLLLLLLLKh# =:------&#oooooooo#=------:& :MKLLLLLLLLLLLLLL",
"LLLLLLLLLLLLLLLLS0o =:-;---------:-::------& &pKLLLLLLLLLLLLLLLL",
"LLLLLLLLLLLLLLLLLKB0$ o=-::----------:--=o =uSLLLLLLLLLLLLLLLLLL",
"LLLLLLLLLLLLLLLLLLLKZa2# o#&=-----==&#  &6hHLLLLLLLLLLLLLLLLLLLL",
"LLLLLLLLLLLLLLLLLLLLLLKVf01=$o.o.oo&-2tjZKLLLLLLLLLLLLLLLLLLLLLL",
"LLLLLLLLLLLLLLLLLLLLLLLLLKKSBnxzzcnVGKKLLLLLLLLLLLLLLLLLLLLLLLLL",
"LLLLLLLLLLLLLLLLLLLLLLLLLLLLLKKKKKKLLLLLLLLLLLLLLLLLLLLLLLLLLLLL",
"LLLLLLLLLLLLLLLLLLLLLLLLLLLLLLLLLLLLLLLLLLLLLLLLLLLLLLLLLLLLLLLL"
};
